<svg xmlns="http://www.w3.org/2000/svg" version="1.1" xmlns:xlink="http://www.w3.org/1999/xlink" xmlns:svgjs="http://svgjs.com/svgjs" width="1920" height="1080" preserveAspectRatio="none" viewBox="0 0 1920 1080"><g mask="url(&quot;#SvgjsMask1077&quot;)" fill="none"><rect width="1920" height="1080" x="0" y="0" fill="rgba(255, 255, 254, 1)"></rect><path d="M1193.98 1063.41L1222.05 1063.41L1222.05 1091.48L1193.98 1091.48z" stroke="rgba(255, 84, 112, 1)"></path><path d="M1776.83 360.83L1782.99 360.83L1782.99 411.58L1776.83 411.58z" fill="rgba(253, 226, 79, 1)"></path><path d="M1514.76 609.26 a88.21 88.21 0 1 0 176.42 0 a88.21 88.21 0 1 0 -176.42 0z" stroke="rgba(253, 226, 79, 1)"></path><path d="M1386.69 316.86L1400.19 316.86L1400.19 330.36L1386.69 330.36z" fill="rgba(0, 33, 77, 1)"></path><path d="M249.87 19.84 a69.58 69.58 0 1 0 139.16 0 a69.58 69.58 0 1 0 -139.16 0z" fill="rgba(255, 84, 112, 1)"></path><path d="M380.27 767.32a21.54 21.54 0 1 0-15.96 40.01z" fill="rgba(253, 226, 79, 1)"></path><path d="M1373.17 1051.98 a0.52 0.52 0 1 0 1.04 0 a0.52 0.52 0 1 0 -1.04 0z" stroke="rgba(255, 84, 112, 1)"></path><path d="M670.31 620.19L678.28 620.19L678.28 628.16L670.31 628.16z" stroke="rgba(0, 235, 199, 1)"></path><path d="M563.96 207.82L592.73 207.82L592.73 218.92L563.96 218.92z" stroke="rgba(0, 33, 77, 1)"></path><path d="M788.83 824.8a29.96 29.96 0 1 0-38 46.32z" stroke="rgba(0, 33, 77, 1)"></path><path d="M503.75 618.29L546.14 618.29L546.14 660.68L503.75 660.68z" fill="rgba(255, 84, 112, 1)"></path><path d="M1233.16 707.73a37.85 37.85 0 1 0 73.88-16.52z" stroke="rgba(0, 235, 199, 1)"></path><path d="M609.88 437.88L630.08 437.88L630.08 510.32L609.88 510.32z" fill="rgba(0, 235, 199, 1)"></path><path d="M1599.96 610.77L1634.2 610.77L1634.2 645.01L1599.96 645.01z" stroke="rgba(0, 33, 77, 1)"></path><path d="M371.69 1042.23L436.66 1042.23L436.66 1107.2L371.69 1107.2z" stroke="rgba(255, 84, 112, 1)"></path><path d="M633.28 634.17a41.41 41.41 0 1 0 52.81-63.8z" fill="rgba(0, 235, 199, 1)"></path><path d="M89.66 829.18 a90.37 90.37 0 1 0 180.74 0 a90.37 90.37 0 1 0 -180.74 0z" stroke="rgba(0, 235, 199, 1)"></path><path d="M1606.49 272.85a32.7 32.7 0 1 0 27-59.57z" fill="rgba(255, 84, 112, 1)"></path><path d="M153.69 943.95a37.36 37.36 0 1 0 72.34 18.71z" fill="rgba(253, 226, 79, 1)"></path><path d="M1579.97 904.12 a105.88 105.88 0 1 0 211.76 0 a105.88 105.88 0 1 0 -211.76 0z" stroke="rgba(255, 84, 112, 1)"></path><path d="M1826.66 688.95L1927.94 688.95L1927.94 711.94L1826.66 711.94z" fill="rgba(0, 235, 199, 1)"></path><path d="M442.24 701.95L514.82 701.95L514.82 774.53L442.24 774.53z" fill="rgba(253, 226, 79, 1)"></path><path d="M1392.13 751.19 a97.75 97.75 0 1 0 195.5 0 a97.75 97.75 0 1 0 -195.5 0z" stroke="rgba(253, 226, 79, 1)"></path></g><defs><mask id="SvgjsMask1077"><rect width="1920" height="1080" fill="#ffffff"></rect></mask></defs></svg>