<svg xmlns="http://www.w3.org/2000/svg" version="1.1" xmlns:xlink="http://www.w3.org/1999/xlink" xmlns:svgjs="http://svgjs.com/svgjs" width="1920" height="1080" preserveAspectRatio="none" viewBox="0 0 1920 1080"><g mask="url(&quot;#SvgjsMask1297&quot;)" fill="none"><rect width="1920" height="1080" x="0" y="0" fill="rgba(255, 255, 254, 1)"></rect><path d="M165.29 104.87L258.83 158.87L258.83 266.87L165.29 320.87L71.76 266.87L71.76 158.87zM165.29 752.87L258.83 806.87L258.83 914.87L165.29 968.87L71.76 914.87L71.76 806.87zM71.76 914.87L165.29 968.87L165.29 1076.87L71.76 1130.87L-21.77 1076.87L-21.77 968.87zM165.29 1076.87L258.83 1130.87L258.83 1238.87L165.29 1292.87L71.76 1238.87L71.76 1130.87zM258.83 -57.13L352.36 -3.13L352.36 104.87L258.83 158.87L165.29 104.87L165.29 -3.13zM258.83 590.87L352.36 644.87L352.36 752.87L258.83 806.87L165.29 752.87L165.29 644.87zM352.36 752.87L445.89 806.87L445.89 914.87L352.36 968.87L258.83 914.87L258.83 806.87zM539.43 428.87L632.96 482.87L632.96 590.87L539.43 644.87L445.89 590.87L445.89 482.87zM445.89 590.87L539.43 644.87L539.43 752.87L445.89 806.87L352.36 752.87L352.36 644.87zM726.49 428.87L820.03 482.87L820.03 590.87L726.49 644.87L632.96 590.87L632.96 482.87zM632.96 914.87L726.49 968.87L726.49 1076.87L632.96 1130.87L539.43 1076.87L539.43 968.87zM820.03 -57.13L913.56 -3.13L913.56 104.87L820.03 158.87L726.49 104.87L726.49 -3.13zM913.56 104.87L1007.09 158.87L1007.09 266.87L913.56 320.87L820.03 266.87L820.03 158.87zM913.56 1076.87L1007.09 1130.87L1007.09 1238.87L913.56 1292.87L820.03 1238.87L820.03 1130.87zM1100.63 752.87L1194.16 806.87L1194.16 914.87L1100.63 968.87L1007.09 914.87L1007.09 806.87zM1194.16 -57.13L1287.69 -3.13L1287.69 104.87L1194.16 158.87L1100.63 104.87L1100.63 -3.13zM1381.23 -57.13L1474.76 -3.13L1474.76 104.87L1381.23 158.87L1287.69 104.87L1287.69 -3.13zM1381.23 590.87L1474.76 644.87L1474.76 752.87L1381.23 806.87L1287.69 752.87L1287.69 644.87zM1381.23 914.87L1474.76 968.87L1474.76 1076.87L1381.23 1130.87L1287.69 1076.87L1287.69 968.87zM1661.83 104.87L1755.36 158.87L1755.36 266.87L1661.83 320.87L1568.29 266.87L1568.29 158.87zM1568.29 590.87L1661.83 644.87L1661.83 752.87L1568.29 806.87L1474.76 752.87L1474.76 644.87zM1568.29 914.87L1661.83 968.87L1661.83 1076.87L1568.29 1130.87L1474.76 1076.87L1474.76 968.87zM1755.36 266.87L1848.89 320.87L1848.89 428.87L1755.36 482.87L1661.83 428.87L1661.83 320.87zM1848.89 752.87L1942.43 806.87L1942.43 914.87L1848.89 968.87L1755.36 914.87L1755.36 806.87zM2035.96 428.87L2129.49 482.87L2129.49 590.87L2035.96 644.87L1942.43 590.87L1942.43 482.87zM2035.96 752.87L2129.49 806.87L2129.49 914.87L2035.96 968.87L1942.43 914.87L1942.43 806.87z" stroke="rgba(27, 45, 69, 0.17)" stroke-width="2"></path><path d="M95.57 987.12L190.84 1042.12L190.84 1152.12L95.57 1207.12L0.3 1152.12L0.3 1042.12zM286.1 -2.88L381.37 52.12L381.37 162.12L286.1 217.12L190.84 162.12L190.84 52.12zM381.37 162.12L476.63 217.12L476.63 327.12L381.37 382.12L286.1 327.12L286.1 217.12zM381.37 492.12L476.63 547.12L476.63 657.12L381.37 712.12L286.1 657.12L286.1 547.12zM571.9 162.12L667.16 217.12L667.16 327.12L571.9 382.12L476.63 327.12L476.63 217.12zM571.9 492.12L667.16 547.12L667.16 657.12L571.9 712.12L476.63 657.12L476.63 547.12zM571.9 822.12L667.16 877.12L667.16 987.12L571.9 1042.12L476.63 987.12L476.63 877.12zM476.63 987.12L571.9 1042.12L571.9 1152.12L476.63 1207.12L381.37 1152.12L381.37 1042.12zM667.16 657.12L762.43 712.12L762.43 822.12L667.16 877.12L571.9 822.12L571.9 712.12zM762.43 822.12L857.69 877.12L857.69 987.12L762.43 1042.12L667.16 987.12L667.16 877.12zM667.16 987.12L762.43 1042.12L762.43 1152.12L667.16 1207.12L571.9 1152.12L571.9 1042.12zM857.69 327.12L952.96 382.12L952.96 492.12L857.69 547.12L762.43 492.12L762.43 382.12zM1143.49 492.12L1238.76 547.12L1238.76 657.12L1143.49 712.12L1048.22 657.12L1048.22 547.12zM1143.49 822.12L1238.76 877.12L1238.76 987.12L1143.49 1042.12L1048.22 987.12L1048.22 877.12zM1048.22 987.12L1143.49 1042.12L1143.49 1152.12L1048.22 1207.12L952.96 1152.12L952.96 1042.12zM1334.02 492.12L1429.29 547.12L1429.29 657.12L1334.02 712.12L1238.76 657.12L1238.76 547.12zM1238.76 987.12L1334.02 1042.12L1334.02 1152.12L1238.76 1207.12L1143.49 1152.12L1143.49 1042.12zM1334.02 1152.12L1429.29 1207.12L1429.29 1317.12L1334.02 1372.12L1238.76 1317.12L1238.76 1207.12zM1429.29 -2.88L1524.55 52.12L1524.55 162.12L1429.29 217.12L1334.02 162.12L1334.02 52.12zM1524.55 162.12L1619.82 217.12L1619.82 327.12L1524.55 382.12L1429.29 327.12L1429.29 217.12zM1429.29 327.12L1524.55 382.12L1524.55 492.12L1429.29 547.12L1334.02 492.12L1334.02 382.12zM1429.29 987.12L1524.55 1042.12L1524.55 1152.12L1429.29 1207.12L1334.02 1152.12L1334.02 1042.12zM1619.82 -2.88L1715.08 52.12L1715.08 162.12L1619.82 217.12L1524.55 162.12L1524.55 52.12zM1619.82 327.12L1715.08 382.12L1715.08 492.12L1619.82 547.12L1524.55 492.12L1524.55 382.12zM1619.82 657.12L1715.08 712.12L1715.08 822.12L1619.82 877.12L1524.55 822.12L1524.55 712.12zM1905.61 822.12L2000.88 877.12L2000.88 987.12L1905.61 1042.12L1810.35 987.12L1810.35 877.12zM1810.35 987.12L1905.61 1042.12L1905.61 1152.12L1810.35 1207.12L1715.08 1152.12L1715.08 1042.12zM1905.61 1152.12L2000.88 1207.12L2000.88 1317.12L1905.61 1372.12L1810.35 1317.12L1810.35 1207.12zM2000.88 657.12L2096.15 712.12L2096.15 822.12L2000.88 877.12L1905.61 822.12L1905.61 712.12zM2000.88 987.12L2096.15 1042.12L2096.15 1152.12L2000.88 1207.12L1905.61 1152.12L1905.61 1042.12z" stroke="rgba(27, 45, 69, 0.2)" stroke-width="2"></path></g><defs><mask id="SvgjsMask1297"><rect width="1920" height="1080" fill="#ffffff"></rect></mask></defs></svg>