<svg xmlns="http://www.w3.org/2000/svg" version="1.1" xmlns:xlink="http://www.w3.org/1999/xlink" xmlns:svgjs="http://svgjs.com/svgjs" width="1440" height="560" preserveAspectRatio="none" viewBox="0 0 1440 560"><g mask="url(&quot;#SvgjsMask1000&quot;)" fill="none"><rect width="1440" height="560" x="0" y="0" fill="#0e2a47"></rect><path d="M0,381.27C68.237,362.505,122.149,317.942,188.488,293.294C279.146,259.611,405.433,289.844,460.346,210.233C513.257,133.525,463.298,26.026,433.817,-62.374C408.083,-139.539,353.082,-198.433,302.75,-262.334C249.735,-329.64,211.511,-416.941,131.145,-446.64C49.507,-476.809,-46.428,-460.662,-123.252,-419.759C-194.367,-381.896,-218.106,-295.564,-269.36,-233.402C-318.965,-173.239,-405.803,-137.075,-419.609,-60.331C-433.45,16.607,-362.582,80.316,-339.217,154.915C-311.419,243.667,-346.772,367.589,-269.411,419.211C-192.414,470.59,-89.252,405.813,0,381.27" fill="#0b2239"></path><path d="M1440 949.53C1534.763 964.5319999999999 1627.557 1023.8389999999999 1718.558 993.4449999999999 1814.987 961.238 1892.798 878.514 1932.653 784.987 1972.125 692.36 1949.068 588.521 1933.5 489.045 1918.113 390.727 1911.538 282.934 1842.816 210.95800000000003 1774.9479999999999 139.87599999999998 1669.15 125.32299999999998 1572.006 110.43 1484.892 97.07499999999999 1398.606 106.23599999999999 1313.694 129.83999999999997 1227.723 153.73899999999998 1139.496 181.586 1079.25 247.40800000000002 1018.244 314.06100000000004 997.06 405.10900000000004 980.453 493.927 963.232 586.026 936.251 687.361 981.664 769.315 1026.59 850.39 1126.629 879.471 1212.8899999999999 913.389 1285.704 942.019 1362.722 937.296 1440 949.53" fill="#113255"></path></g><defs><mask id="SvgjsMask1000"><rect width="1440" height="560" fill="#ffffff"></rect></mask></defs></svg>