<svg xmlns="http://www.w3.org/2000/svg" version="1.1" xmlns:xlink="http://www.w3.org/1999/xlink" xmlns:svgjs="http://svgjs.com/svgjs" width="1920" height="1080" preserveAspectRatio="none" viewBox="0 0 1920 1080"><g mask="url(&quot;#SvgjsMask11696&quot;)" fill="none"><rect width="1920" height="1080" x="0" y="0" fill="rgba(255, 255, 254, 1)"></rect><rect width="552" height="552" clip-path="url(&quot;#SvgjsClipPath11697&quot;)" x="653.92" y="648.73" fill="url(#SvgjsPattern11698)" transform="rotate(136.01, 929.92, 924.73)"></rect><rect width="345.28" height="345.28" clip-path="url(&quot;#SvgjsClipPath11699&quot;)" x="227.6" y="689.15" fill="url(#SvgjsPattern11700)" transform="rotate(131.42, 400.24, 861.79)"></rect><rect width="684" height="684" clip-path="url(&quot;#SvgjsClipPath11701&quot;)" x="-292.39" y="363.91" fill="url(#SvgjsPattern11702)" transform="rotate(208.67, 49.61, 705.91)"></rect><rect width="294" height="294" clip-path="url(&quot;#SvgjsClipPath11703&quot;)" x="380.98" y="163.64" fill="url(#SvgjsPattern11704)" transform="rotate(38.69, 527.98, 310.64)"></rect><rect width="292.8" height="292.8" clip-path="url(&quot;#SvgjsClipPath11705&quot;)" x="1428.15" y="240.91" fill="url(#SvgjsPattern11706)" transform="rotate(255.63, 1574.55, 387.31)"></rect><rect width="522.72" height="522.72" clip-path="url(&quot;#SvgjsClipPath11707&quot;)" x="1540.52" y="212.01" fill="url(#SvgjsPattern11708)" transform="rotate(268.97, 1801.88, 473.37)"></rect><rect width="420" height="420" clip-path="url(&quot;#SvgjsClipPath11709&quot;)" x="1249.8" y="113.68" fill="url(#SvgjsPattern11710)" transform="rotate(159.64, 1459.8, 323.68)"></rect><rect width="686.4" height="686.4" clip-path="url(&quot;#SvgjsClipPath11711&quot;)" x="-18.08" y="365.61" fill="url(#SvgjsPattern11712)" transform="rotate(104.59, 325.12, 708.81)"></rect></g><defs><mask id="SvgjsMask11696"><rect width="1920" height="1080" fill="#ffffff"></rect></mask><pattern x="0" y="0" width="6" height="6" patternUnits="userSpaceOnUse" id="SvgjsPattern11698"><path d="M0 6L3 0L6 6" stroke="rgba(255, 84, 112, 1)" fill="none"></path></pattern><clipPath id="SvgjsClipPath11697"><circle r="138" cx="929.92" cy="924.73"></circle></clipPath><pattern x="0" y="0" width="13.28" height="13.28" patternUnits="userSpaceOnUse" id="SvgjsPattern11700"><path d="M6.64 1L6.64 12.28M1 6.64L12.28 6.64" stroke="rgba(255, 84, 112, 1)" fill="none" stroke-width="3.17"></path></pattern><clipPath id="SvgjsClipPath11699"><circle r="86.32" cx="400.24" cy="861.79"></circle></clipPath><pattern x="0" y="0" width="6" height="6" patternUnits="userSpaceOnUse" id="SvgjsPattern11702"><path d="M0 6L3 0L6 6" stroke="rgba(253, 226, 79, 1)" fill="none"></path></pattern><clipPath id="SvgjsClipPath11701"><circle r="171" cx="49.61" cy="705.91"></circle></clipPath><pattern x="0" y="0" width="294" height="7" patternUnits="userSpaceOnUse" id="SvgjsPattern11704"><rect width="294" height="3.5" x="0" y="0" fill="rgba(255, 84, 112, 1)"></rect><rect width="294" height="3.5" x="0" y="3.5" fill="rgba(0, 0, 0, 0)"></rect></pattern><clipPath id="SvgjsClipPath11703"><circle r="73.5" cx="527.98" cy="310.64"></circle></clipPath><pattern x="0" y="0" width="292.8" height="12.2" patternUnits="userSpaceOnUse" id="SvgjsPattern11706"><rect width="292.8" height="6.1" x="0" y="0" fill="rgba(255, 84, 112, 1)"></rect><rect width="292.8" height="6.1" x="0" y="6.1" fill="rgba(0, 0, 0, 0)"></rect></pattern><clipPath id="SvgjsClipPath11705"><circle r="73.2" cx="1574.55" cy="387.31"></circle></clipPath><pattern x="0" y="0" width="522.72" height="9.68" patternUnits="userSpaceOnUse" id="SvgjsPattern11708"><rect width="522.72" height="4.84" x="0" y="0" fill="rgba(253, 226, 79, 1)"></rect><rect width="522.72" height="4.84" x="0" y="4.84" fill="rgba(0, 0, 0, 0)"></rect></pattern><clipPath id="SvgjsClipPath11707"><circle r="130.68" cx="1801.88" cy="473.37"></circle></clipPath><pattern x="0" y="0" width="420" height="6" patternUnits="userSpaceOnUse" id="SvgjsPattern11710"><rect width="420" height="3" x="0" y="0" fill="rgba(0, 235, 199, 1)"></rect><rect width="420" height="3" x="0" y="3" fill="rgba(0, 0, 0, 0)"></rect></pattern><clipPath id="SvgjsClipPath11709"><circle r="105" cx="1459.8" cy="323.68"></circle></clipPath><pattern x="0" y="0" width="686.4" height="6.24" patternUnits="userSpaceOnUse" id="SvgjsPattern11712"><rect width="686.4" height="3.12" x="0" y="0" fill="rgba(253, 226, 79, 1)"></rect><rect width="686.4" height="3.12" x="0" y="3.12" fill="rgba(0, 0, 0, 0)"></rect></pattern><clipPath id="SvgjsClipPath11711"><circle r="171.6" cx="325.12" cy="708.81"></circle></clipPath></defs></svg>